<svg width="13" height="6" viewBox="0 0 13 6" fill="none" xmlns="http://www.w3.org/2000/svg">
<path d="M12.6763 2.66819C12.6762 2.66805 12.6761 2.66788 12.6759 2.66774L10.2118 0.230248C10.0272 0.047647 9.72865 0.0483265 9.5449 0.231842C9.36117 0.415334 9.36188 0.712122 9.54648 0.894747L11.2009 2.53124H1.21383C0.953374 2.53124 0.742249 2.7411 0.742249 2.99999C0.742249 3.25888 0.953374 3.46874 1.21383 3.46874H11.2008L9.5465 5.10524C9.3619 5.28786 9.3612 5.58465 9.54492 5.76814C9.72867 5.95168 10.0273 5.95232 10.2119 5.76974L12.6759 3.33224C12.6761 3.3321 12.6762 3.33194 12.6764 3.3318C12.8611 3.14856 12.8605 2.85081 12.6763 2.66819Z" fill="#57ADFE"/>
</svg>
