<svg width="20" height="28" viewBox="0 0 20 28" fill="none" xmlns="http://www.w3.org/2000/svg">
<path d="M12.6098 3.1855C11.9855 2.26754 11.4348 1.423 10.9207 0.670267C10.8473 0.560111 10.7371 0.449959 10.6269 0.376521C10.1863 0.0827712 9.59881 0.229642 9.30507 0.670267C8.82772 1.44136 8.27694 2.24918 7.61601 3.1855C4.73358 7.42652 0.419128 13.8156 0.419128 17.4691C0.419128 20.1312 1.52069 22.5547 3.26483 24.2988C5.02733 26.0246 7.43241 27.1078 10.0945 27.1078C12.7566 27.1078 15.1801 26.0062 16.9242 24.2621C18.6867 22.4996 19.7699 20.0945 19.7699 17.4324C19.8066 13.7972 15.4922 7.42652 12.6098 3.1855ZM15.639 22.9586C14.207 24.3906 12.2793 25.2168 10.1129 25.2168C7.94648 25.2168 6.01874 24.3355 4.58671 22.9586C3.15468 21.5265 2.3285 19.5988 2.3285 17.4324C2.3285 14.3664 6.45937 8.25269 9.19491 4.19527C9.52538 3.71793 9.81913 3.24058 10.1129 2.83668C10.4066 3.24058 10.7004 3.71793 11.0309 4.19527C13.7664 8.28941 17.8973 14.348 17.8973 17.4324C17.9156 19.5988 17.0344 21.5449 15.639 22.9586Z" fill="url(#paint0_linear)"/>
<defs>
<linearGradient id="paint0_linear" x1="10.0946" y1="0.223694" x2="10.0946" y2="27.1078" gradientUnits="userSpaceOnUse">
<stop stop-color="#57B9FE"/>
<stop offset="1" stop-color="#5768FF"/>
</linearGradient>
</defs>
</svg>
