<svg width="27" height="14" viewBox="0 0 27 14" fill="none" xmlns="http://www.w3.org/2000/svg">
<path d="M0.30934 6.28109C0.309656 6.28078 0.309919 6.28043 0.310289 6.28012L5.82124 0.998872C6.2341 0.603235 6.90187 0.604707 7.31283 1.00232C7.72374 1.39989 7.72216 2.04293 7.3093 2.43862L3.60925 5.98437H25.9453C26.5278 5.98437 27 6.43907 27 7C27 7.56093 26.5278 8.01562 25.9453 8.01562H3.6093L7.30925 11.5614C7.72211 11.9571 7.72369 12.6001 7.31278 12.9977C6.90182 13.3953 6.23399 13.3967 5.82119 13.0011L0.310236 7.71987C0.309919 7.71957 0.309656 7.71921 0.309286 7.71891C-0.103783 7.3219 -0.102463 6.67677 0.30934 6.28109Z" fill="black" fill-opacity="0.5"/>
</svg>
