<svg width="27" height="14" viewBox="0 0 27 14" fill="none" xmlns="http://www.w3.org/2000/svg">
<path d="M26.6907 6.28109C26.6903 6.28078 26.6901 6.28043 26.6897 6.28012L21.1788 0.998872C20.7659 0.603235 20.0981 0.604707 19.6872 1.00232C19.2763 1.39989 19.2778 2.04293 19.6907 2.43862L23.3908 5.98437H1.05469C0.472184 5.98437 0 6.43907 0 7C0 7.56093 0.472184 8.01562 1.05469 8.01562H23.3907L19.6908 11.5614C19.2779 11.9571 19.2763 12.6001 19.6872 12.9977C20.0982 13.3953 20.766 13.3967 21.1788 13.0011L26.6898 7.71987C26.6901 7.71957 26.6903 7.71921 26.6907 7.71891C27.1038 7.3219 27.1025 6.67677 26.6907 6.28109Z" fill="#57AFFE"/>
</svg>
