<svg width="94" height="94" viewBox="0 0 94 94" fill="none" xmlns="http://www.w3.org/2000/svg">
<path d="M73.4008 52.5078C73.4008 52.2875 73.4191 52.0855 73.4375 51.8652V41.125H47V38.1875H38.1875V41.125H33.7812C32.9734 41.125 32.3125 40.4641 32.3125 39.6562V35.25H35.25V26.4375H32.3125V2.9375H5.875V26.4375H2.9375V35.25H5.875V51.4062C5.89336 60.3289 13.1086 67.5441 22.0312 67.5625H38.1875V70.5H47V67.5625H73.4008V52.5078ZM8.8125 5.875H29.375V26.4375H8.8125V5.875ZM5.875 29.375H32.3125V32.3125H5.875V29.375ZM38.1875 64.625H22.0312C14.7426 64.625 8.8125 58.6949 8.8125 51.4062V35.25H29.375V39.6562C29.375 42.098 31.3395 44.0625 33.7812 44.0625H38.1875V64.625ZM44.0625 67.5625H41.125V41.125H44.0625V67.5625ZM47 64.625V44.0625H70.5V64.625H47Z" fill="url(#paint0_linear)"/>
<path d="M67.5625 58.75H64.625V61.6875H67.5625V58.75Z" fill="url(#paint1_linear)"/>
<path d="M61.6875 58.75H58.75V61.6875H61.6875V58.75Z" fill="url(#paint2_linear)"/>
<path d="M14.6875 49.9375V42.5938H11.75V49.9375C11.75 56.4184 17.0191 61.6875 23.5 61.6875H26.4375V58.75H23.5C18.6348 58.75 14.6875 54.8027 14.6875 49.9375Z" fill="url(#paint3_linear)"/>
<path d="M32.3125 58.75H29.375V61.6875H32.3125V58.75Z" fill="url(#paint4_linear)"/>
<path d="M85.6098 66.1855C84.9855 65.2675 84.4348 64.423 83.9207 63.6703C83.8473 63.5601 83.7371 63.45 83.6269 63.3765C83.1863 63.0828 82.5988 63.2296 82.3051 63.6703C81.8277 64.4414 81.2769 65.2492 80.616 66.1855C77.7336 70.4265 73.4191 76.8156 73.4191 80.4691C73.4191 83.1312 74.5207 85.5547 76.2648 87.2988C78.0273 89.0246 80.4324 90.1078 83.0945 90.1078C85.7566 90.1078 88.1801 89.0062 89.9242 87.2621C91.6867 85.4996 92.7699 83.0945 92.7699 80.4324C92.8066 76.7972 88.4922 70.4265 85.6098 66.1855ZM88.639 85.9586C87.207 87.3906 85.2793 88.2168 83.1129 88.2168C80.9465 88.2168 79.0187 87.3355 77.5867 85.9586C76.1547 84.5265 75.3285 82.5988 75.3285 80.4324C75.3285 77.3664 79.4594 71.2527 82.1949 67.1953C82.5254 66.7179 82.8191 66.2406 83.1129 65.8367C83.4066 66.2406 83.7004 66.7179 84.0309 67.1953C86.7664 71.2894 90.8973 77.348 90.8973 80.4324C90.9156 82.5988 90.0344 84.5449 88.639 85.9586Z" fill="url(#paint5_linear)"/>
<path d="M88.7859 79.7899C88.2719 79.7531 87.8313 80.157 87.7945 80.6711C87.7578 81.4789 87.5008 82.25 87.0969 82.8926C86.693 83.5535 86.1055 84.141 85.4078 84.5082C84.9672 84.7652 84.7836 85.3527 85.0406 85.7934C85.3344 86.3074 85.9219 86.4543 86.3625 86.1973C87.3539 85.6465 88.1617 84.8387 88.6941 83.9391C89.2816 83.0211 89.6121 81.9379 89.6488 80.7996C89.7039 80.2672 89.3 79.8266 88.7859 79.7899Z" fill="url(#paint6_linear)"/>
<defs>
<linearGradient id="paint0_linear" x1="38.1875" y1="2.9375" x2="38.1875" y2="70.5" gradientUnits="userSpaceOnUse">
<stop stop-color="#57B9FE"/>
<stop offset="1" stop-color="#5768FF"/>
</linearGradient>
<linearGradient id="paint1_linear" x1="66.0938" y1="58.75" x2="66.0938" y2="61.6875" gradientUnits="userSpaceOnUse">
<stop stop-color="#57B9FE"/>
<stop offset="1" stop-color="#5768FF"/>
</linearGradient>
<linearGradient id="paint2_linear" x1="60.2188" y1="58.75" x2="60.2188" y2="61.6875" gradientUnits="userSpaceOnUse">
<stop stop-color="#57B9FE"/>
<stop offset="1" stop-color="#5768FF"/>
</linearGradient>
<linearGradient id="paint3_linear" x1="19.0938" y1="42.5938" x2="19.0938" y2="61.6875" gradientUnits="userSpaceOnUse">
<stop stop-color="#57B9FE"/>
<stop offset="1" stop-color="#5768FF"/>
</linearGradient>
<linearGradient id="paint4_linear" x1="30.8438" y1="58.75" x2="30.8438" y2="61.6875" gradientUnits="userSpaceOnUse">
<stop stop-color="#57B9FE"/>
<stop offset="1" stop-color="#5768FF"/>
</linearGradient>
<linearGradient id="paint5_linear" x1="83.0946" y1="63.2237" x2="83.0946" y2="90.1078" gradientUnits="userSpaceOnUse">
<stop stop-color="#57B9FE"/>
<stop offset="1" stop-color="#5768FF"/>
</linearGradient>
<linearGradient id="paint6_linear" x1="87.2885" y1="79.7875" x2="87.2885" y2="86.3212" gradientUnits="userSpaceOnUse">
<stop stop-color="#57B9FE"/>
<stop offset="1" stop-color="#5768FF"/>
</linearGradient>
</defs>
</svg>
