<svg width="99" height="52" viewBox="0 0 99 52" fill="none" xmlns="http://www.w3.org/2000/svg">
<path d="M98.6531 42.8243C98.6524 42.8221 98.6516 42.8206 98.6509 42.8184C98.6501 42.8169 98.6494 42.8146 98.6486 42.8131L82.8435 6.39422C82.2681 5.06858 81.3985 3.91715 80.3281 3.06479C78.2889 1.43933 75.7225 0.543602 73.1026 0.543602H64.4689C64.432 0.542854 64.3959 0.542854 64.359 0.543602H49.5152C49.5009 0.543602 49.4859 0.542854 49.4708 0.542854C49.4558 0.542854 49.4407 0.543602 49.4265 0.543602H34.5841C34.5465 0.542107 34.5082 0.542107 34.4713 0.543602H27.5827C26.7854 0.543602 26.1385 1.18661 26.1385 1.97915C26.1385 2.77245 26.7854 3.41471 27.5827 3.41471H32.7413L30.1372 15.4128C27.782 13.5331 24.8267 12.4901 21.7126 12.4901C19.7335 12.4901 17.8124 12.9155 16.0688 13.7111L18.7497 7.53295C19.1408 6.63199 19.723 5.85814 20.4331 5.29363C20.4331 5.29363 21.6667 4.43903 22.3437 4.14295C23.0733 3.82294 23.4043 2.97582 23.0823 2.24982C22.7604 1.52456 21.9074 1.19633 21.1778 1.51559C20.2751 1.91111 19.4251 2.42178 18.6511 3.03414C18.6496 3.03488 18.6316 3.04984 18.6308 3.05058C17.5514 3.90743 16.6751 5.0641 16.0974 6.39572L5.92249 29.8408C5.90895 29.87 5.89616 29.8991 5.88488 29.9291L0.293058 42.8131C0.292306 42.8146 0.291554 42.8169 0.290801 42.8184C0.290049 42.8206 0.289297 42.8221 0.288545 42.8243C0.209564 43.0105 0.172707 43.2049 0.174963 43.3971V48.5972C0.174963 49.5079 0.7188 50.3288 1.55975 50.69C2.3992 51.0496 3.37255 50.8799 4.03749 50.2556C6.62729 47.8263 10.0167 46.4887 13.5813 46.4887C17.4792 46.4887 21.2236 48.1292 23.8533 50.9883C24.2851 51.4586 24.9019 51.7285 25.545 51.7285C26.1881 51.7285 26.8049 51.4586 27.2367 50.989C29.8664 48.1292 33.61 46.4887 37.5072 46.4887C41.405 46.4887 45.1495 48.1292 47.7791 50.9883C48.2109 51.4586 48.8277 51.7285 49.4708 51.7285C50.114 51.7285 50.7308 51.4586 51.1625 50.989C53.7922 48.1292 57.5359 46.4887 61.4322 46.4887C65.3309 46.4887 69.0753 48.1292 71.705 50.9883C72.1367 51.4586 72.7535 51.7285 73.3967 51.7285C74.0398 51.7285 74.6566 51.4586 75.0883 50.989C76.9906 48.9202 79.4375 47.4906 82.1665 46.8536C82.9428 46.6727 83.4242 45.9003 83.2421 45.128C83.0601 44.3563 82.2831 43.8778 81.5061 44.0588C78.4161 44.7795 75.6254 46.3414 73.3967 48.5905C70.2502 45.4225 65.9259 43.6176 61.4322 43.6176C56.9401 43.6176 52.6173 45.4225 49.4708 48.5912C46.3244 45.4225 42.0008 43.6176 37.5072 43.6176C33.0151 43.6176 28.6914 45.4225 25.545 48.5912C22.3993 45.4225 18.075 43.6176 13.5813 43.6176C9.72559 43.6176 6.03908 44.9141 3.06339 47.2933V43.9018C8.76579 37.3498 19.0144 37.613 24.4205 44.2823C24.4408 44.2988 24.7341 44.716 25.3336 44.802C25.8752 44.8775 26.3739 44.6592 26.6838 44.2651C29.3398 40.9985 33.2836 39.1256 37.5072 39.1256C41.5043 39.1256 45.2683 40.6449 48.3741 44.316C48.3944 44.3399 48.4117 44.3586 48.4305 44.3773C48.4651 44.4139 48.5118 44.4565 48.5471 44.485C48.7999 44.6943 49.1406 44.8274 49.5107 44.8169C49.8605 44.8057 50.1764 44.6764 50.4231 44.461C50.4412 44.4453 50.4622 44.4266 50.4795 44.4094C50.5036 44.3855 50.5201 44.3691 50.542 44.3444C50.5615 44.3227 50.5728 44.31 50.5931 44.2846C50.5939 44.2838 50.5946 44.2831 50.5954 44.2823C53.2521 41.0052 57.2019 39.1256 61.4322 39.1256C68.6781 39.1256 72.4602 44.4752 72.4406 44.458C73.5998 45.4711 74.7348 44.0969 74.4971 44.3115C80.6854 37.0986 90.576 37.8134 95.8783 43.9018V47.2925C93.5585 45.4368 90.8077 44.2367 87.8478 43.7993C87.0603 43.6849 86.3246 44.224 86.2073 45.0083C86.09 45.7926 86.6345 46.5231 87.4236 46.6398C90.2376 47.0547 92.8244 48.3056 94.9042 50.2548C95.5691 50.8791 96.5417 51.0496 97.3812 50.69C98.2229 50.3288 98.766 49.5079 98.766 48.5972V43.3971C98.769 43.2049 98.7321 43.0105 98.6531 42.8243ZM24.7071 40.4355C19.3793 35.7438 11.5685 34.9161 5.36285 38.3801L8.4634 31.236C10.7794 28.7118 14.0883 27.268 17.577 27.268C21.092 27.268 24.3836 28.7103 26.7011 31.2457L24.7071 40.4355ZM27.4165 27.9499C24.7018 25.668 21.2357 24.3969 17.577 24.3969C15.1707 24.3969 12.8322 24.9555 10.738 25.994L13.8424 18.8409C15.8251 16.627 18.6812 15.3612 21.7126 15.3612C24.6762 15.3612 27.4541 16.5597 29.4301 18.6697L27.4165 27.9499ZM48.0266 39.9263C45.0727 37.5629 41.3877 36.2537 37.5064 36.2537C34.026 36.2537 30.7021 37.3072 27.9227 39.2302L29.6369 31.334C31.9582 28.744 35.2844 27.268 38.8386 27.268C42.3859 27.268 45.7061 28.7372 48.0266 31.3153V39.9263ZM48.0266 27.4325C45.4195 25.4766 42.2106 24.3969 38.8386 24.3969C35.8772 24.3969 33.0421 25.2299 30.6298 26.7581L32.3486 18.8357C34.3329 16.6225 37.177 15.3604 40.2173 15.3604C43.2269 15.3604 46.0446 16.5964 48.0266 18.7684V27.4325ZM48.0266 14.95C45.7813 13.3626 43.0651 12.4901 40.2173 12.4901C37.7441 12.4901 35.3717 13.148 33.3204 14.3608L35.6959 3.41471H48.0266V14.95ZM73.1026 3.41471C75.0966 3.41471 76.9703 4.06818 78.5214 5.3041C79.2247 5.86486 79.8024 6.63498 80.1912 7.53145L82.8728 13.7111C81.1285 12.9155 79.2066 12.4901 77.2268 12.4901C74.1143 12.4901 71.1589 13.5331 68.8045 15.4128L66.2004 3.41471H73.1026ZM50.915 3.41471H63.2458L65.6212 14.3608C63.5692 13.148 61.1953 12.4901 58.7221 12.4901C55.8743 12.4901 53.1596 13.3626 50.915 14.95V3.41471ZM50.915 18.7684C52.8963 16.5964 55.7133 15.3612 58.7221 15.3612C61.7632 15.3612 64.608 16.6225 66.5923 18.8357L68.3118 26.7581C65.8988 25.2299 63.063 24.3969 60.1001 24.3969C56.7288 24.3969 53.5214 25.4766 50.915 27.4325V18.7684ZM61.4322 36.2537C57.5524 36.2537 53.8682 37.5629 50.915 39.9263V31.316C53.2356 28.7372 56.5543 27.268 60.1009 27.268C63.6565 27.268 66.9834 28.744 69.3047 31.334L71.0182 39.231C68.2389 37.3079 64.9149 36.2537 61.4322 36.2537ZM69.5108 18.6697C71.4876 16.5597 74.2639 15.3612 77.2268 15.3612C80.2597 15.3612 83.1165 16.627 85.0993 18.8409L88.2036 25.994C86.1088 24.9555 83.7702 24.3969 81.3624 24.3969C77.7045 24.3969 74.2391 25.668 71.5252 27.9499L69.5108 18.6697ZM74.2346 40.4355L72.2405 31.2457C74.5573 28.7103 77.8489 27.268 81.3624 27.268C84.8526 27.268 88.1615 28.7118 90.4783 31.236L93.5796 38.3801C87.4875 34.9811 79.67 35.6481 74.2346 40.4355Z" fill="url(#paint0_linear)"/>
<defs>
<linearGradient id="paint0_linear" x1="49.4705" y1="0.54248" x2="49.4705" y2="51.7285" gradientUnits="userSpaceOnUse">
<stop stop-color="#57D4FE"/>
<stop offset="1" stop-color="#5770FE"/>
</linearGradient>
</defs>
</svg>
